<svg width="193" height="195" viewBox="0 0 193 195" fill="none" xmlns="http://www.w3.org/2000/svg">
<path d="M78.3457 85H151V90H67V85H78.3457Z" fill="#FF9500"/>
<path d="M133.976 64L137 76H80L83.0223 64H133.976Z" fill="#FF9500"/>
<path d="M126.97 34L130 46H88L91.032 34H126.97Z" fill="#FF9500"/>
<path d="M119.064 4L122 16H96L98.9365 4H119.064" fill="#FF9500"/>
<path d="M137.802 76L140 85H78L80.1474 76H137.802Z" fill="#EAEAEA"/>
<path d="M118.029 4.43688e-08L119 4H99L99.9709 4.43688e-08H118.029" fill="#EAEAEA"/>
<path d="M122.421 16L127 34H91L95.5246 16H122.421Z" fill="#EAEAEA"/>
<path d="M129.577 46L134 64H84L88.4731 46H129.577Z" fill="#EAEAEA"/>
<path d="M98.1111 16L101 4H95.9505L93 16H98.1111Z" fill="#FFB600"/>
<path d="M77.1934 76L75 85H80.8708L83 76H77.1934" fill="#F0F3F4"/>
<path d="M82.9329 76L86 64L80.1663 64.0037L77 76H82.9329" fill="#FFB600"/>
<path d="M86.1496 63.9963L91 46.0262L85.0109 46L80 64L86.1496 63.9963" fill="#F0F3F4"/>
<path d="M90.8404 46L94 34H88.2533L85 45.9738L90.8404 46" fill="#FFB600"/>
<path d="M93.4696 34L98 16H92.6758L88 34H93.4696Z" fill="#F0F3F4"/>
<path d="M101.026 4L102 -1.59693e-07H97.0099L96 4H101.026" fill="#F0F3F4"/>
<path d="M151 85H67V84H151V85Z" fill="#FFB600"/>
<path d="M120.346 190H193V195H109V190H120.346Z" fill="#FF9500"/>
<path d="M175.976 169L179 181H122L125.022 169H175.976Z" fill="#FF9500"/>
<path d="M168.97 139L172 151H130L133.032 139H168.97Z" fill="#FF9500"/>
<path d="M161.064 109L164 121H138L140.936 109H161.064" fill="#FF9500"/>
<path d="M179.802 181L182 190H120L122.147 181H179.802Z" fill="#EAEAEA"/>
<path d="M160.029 104L161 108H141L141.971 104H160.029" fill="#EAEAEA"/>
<path d="M164.421 121L169 139H133L137.525 121H164.421Z" fill="#EAEAEA"/>
<path d="M171.577 151L176 169H126L130.473 151H171.577Z" fill="#EAEAEA"/>
<path d="M140.111 120L143 108H137.951L135 120H140.111Z" fill="#FFB600"/>
<path d="M119.193 179L117 188H122.871L125 179H119.193" fill="#F0F3F4"/>
<path d="M124.933 180L128 168L122.166 168.004L119 180H124.933" fill="#FFB600"/>
<path d="M128.15 167.996L133 150.026L127.011 150L122 168L128.15 167.996" fill="#F0F3F4"/>
<path d="M132.84 150L136 138H130.253L127 149.974L132.84 150" fill="#FFB600"/>
<path d="M135.47 138L140 120H134.676L130 138H135.47Z" fill="#F0F3F4"/>
<path d="M143.026 108L144 104H139.01L138 108H143.026" fill="#F0F3F4"/>
<path d="M193 190H109V189H193V190Z" fill="#FFB600"/>
<path d="M11.3457 146H84V151H0V146H11.3457Z" fill="#FF9500"/>
<path d="M66.9761 125L70 137H13L16.0223 125H66.9761Z" fill="#FF9500"/>
<path d="M59.9702 95L63 107H21L24.032 95H59.9702Z" fill="#FF9500"/>
<path d="M52.064 65L55 77H29L31.9365 65H52.064" fill="#FF9500"/>
<path d="M70.8021 137L73 146H11L13.1474 137H70.8021Z" fill="#EAEAEA"/>
<path d="M51.0291 61L52 65H32L32.9709 61H51.0291" fill="#EAEAEA"/>
<path d="M55.421 77L60 95H24L28.5246 77H55.421Z" fill="#EAEAEA"/>
<path d="M62.5774 107L67 125H17L21.4731 107H62.5774Z" fill="#EAEAEA"/>
<path d="M31.1111 77L34 65H28.9505L26 77H31.1111Z" fill="#FFB600"/>
<path d="M10.1934 137L8 146H13.8708L16 137H10.1934" fill="#F0F3F4"/>
<path d="M15.9329 137L19 125L13.1663 125.004L10 137H15.9329" fill="#FFB600"/>
<path d="M19.1496 124.996L24 107.026L18.0109 107L13 125L19.1496 124.996" fill="#F0F3F4"/>
<path d="M23.8404 107L27 95H21.2533L18 106.974L23.8404 107" fill="#FFB600"/>
<path d="M26.4696 95L31 77H25.6758L21 95H26.4696Z" fill="#F0F3F4"/>
<path d="M34.0261 65L35 61H30.0099L29 65H34.0261" fill="#F0F3F4"/>
<path d="M84 146H0V145H84V146Z" fill="#FFB600"/>
</svg>
