<svg width="257" height="78" viewBox="0 0 257 78" fill="none" xmlns="http://www.w3.org/2000/svg">
<path d="M0 65.4077L6.71867 1.09572H15.1707L8.45333 65.4077H0Z" fill="#231F20"/>
<path d="M18.7213 65.4077L26.6746 1.09572H35.128L41.0706 53.6144L58.1333 1.09572H66.5493L61.0653 65.4077H54.0813L58.288 18.2024L42.3453 65.4077H37.444L31.4586 18.2411L25.7866 65.4077H18.7213Z" fill="#231F20"/>
<path d="M83.4166 29.1798H87.818C91.7286 29.1798 94.502 28.4545 96.1353 27.0052C97.77 25.5585 98.7926 22.8292 99.2033 18.8212C99.4126 17.2972 99.514 15.9505 99.514 14.7878V14.0905C99.462 12.7732 99.3126 11.6772 99.07 10.8118C98.8246 9.94384 98.318 9.25318 97.546 8.73451C96.774 8.21851 95.822 7.85851 94.6886 7.65184C93.554 7.44517 92.0766 7.33984 90.2486 7.33984H85.694L83.4166 29.1798ZM70.95 65.4078L77.6646 1.09584H93.53C99.062 1.09584 102.91 2.59584 105.073 5.59584C106.771 7.97584 107.633 11.1945 107.658 15.2532C107.658 16.3665 107.594 17.5412 107.466 18.7838C106.898 23.9812 105.13 28.0532 102.157 31.0012C99.186 33.9465 95.126 35.4225 89.978 35.4225H82.762L79.5953 65.4078H70.95Z" fill="#231F20"/>
<path d="M161.829 66.1069C159.18 66.1069 156.888 65.7483 154.96 65.0389C153.029 64.3269 151.504 63.3389 150.385 62.0709C149.265 60.8029 148.389 59.2856 147.76 57.5123C147.129 55.7416 146.789 53.7976 146.737 51.6763V50.3936C146.737 48.6629 146.815 46.8256 146.968 44.8883L149.401 21.8469C149.761 18.4349 150.333 15.4843 151.117 13.0029C151.904 10.5229 153.023 8.3016 154.476 6.35227C155.929 4.40027 157.841 2.9256 160.208 1.9296C162.576 0.933605 165.407 0.436273 168.7 0.436273C171.635 0.436273 174.105 0.852272 176.112 1.67894C178.12 2.50827 179.651 3.73761 180.707 5.38027C181.761 7.02561 182.456 8.95627 182.792 11.1803C182.971 12.3176 183.06 13.5576 183.06 14.9029C183.06 16.1469 182.984 17.4896 182.829 18.9403L182.289 23.9403H174.105L174.569 19.5189C174.671 18.5629 174.748 17.7803 174.8 17.1736C174.852 16.5656 174.896 15.8629 174.935 15.0589C174.973 14.2563 174.968 13.6056 174.915 13.0989C174.864 12.5963 174.78 12.0336 174.664 11.4123C174.551 10.7923 174.381 10.3016 174.163 9.94027C173.944 9.57627 173.661 9.20294 173.315 8.8136C172.967 8.42827 172.548 8.1296 172.059 7.92294C171.569 7.71627 170.992 7.54694 170.323 7.41761C169.653 7.28827 168.907 7.22294 168.084 7.22294C166.591 7.22294 165.299 7.4456 164.204 7.88294C163.111 8.32427 162.229 8.89227 161.559 9.59094C160.891 10.2856 160.324 11.2509 159.861 12.4789C159.397 13.7069 159.056 14.9163 158.837 16.1043C158.62 17.2976 158.408 18.8109 158.2 20.6429L155.537 46.2829C155.357 47.8856 155.269 49.3229 155.269 50.5896C155.269 53.1776 155.628 55.1136 156.349 56.4096C157.379 58.3203 159.461 59.2776 162.601 59.2776C163.812 59.2776 164.865 59.1469 165.768 58.8883C166.667 58.6309 167.432 58.2043 168.064 57.6096C168.692 57.0149 169.216 56.3963 169.628 55.7483C170.039 55.1016 170.385 54.2229 170.669 53.1123C170.952 51.9989 171.172 50.9696 171.325 50.0269C171.48 49.0829 171.635 47.8603 171.788 46.3616L172.252 41.6683H180.437L179.935 46.3616C179.625 49.4376 179.097 52.1296 178.351 54.4296C177.604 56.7309 176.544 58.7869 175.167 60.5936C173.789 62.4069 171.989 63.7763 169.763 64.7043C167.536 65.6389 164.892 66.1069 161.829 66.1069Z" fill="#231F20"/>
<path d="M193.175 65.4077L199.197 7.53439H187.423L188.079 1.09572H219.925L219.269 7.53439H207.845L201.785 65.4077H193.175Z" fill="#231F20"/>
<path d="M234.941 59.2776C236.717 59.2776 238.217 59.0083 239.437 58.4629C240.661 57.9203 241.633 57.0789 242.35 55.9403C243.074 54.8056 243.621 53.5629 243.993 52.2189C244.368 50.8736 244.654 49.2203 244.858 47.2509L247.794 18.9776C247.952 17.7363 248.028 16.5709 248.028 15.4843C248.028 14.9936 248.014 14.5309 247.989 14.0896C247.885 12.6403 247.598 11.4069 247.118 10.3856C246.645 9.3616 245.845 8.5816 244.725 8.0376C243.606 7.4976 242.161 7.22293 240.384 7.22293C238.608 7.22293 237.109 7.4816 235.885 8.00026C234.664 8.51893 233.692 9.32426 232.973 10.4229C232.252 11.5243 231.705 12.7309 231.332 14.0509C230.96 15.3723 230.666 17.0109 230.461 18.9776L227.53 47.2509C227.402 48.5976 227.336 49.8376 227.336 50.9749C227.336 51.9603 227.388 52.8416 227.493 53.6149C227.7 55.3723 228.404 56.7576 229.613 57.7629C230.825 58.7749 232.6 59.2776 234.941 59.2776ZM234.209 66.1069C231.017 66.1069 228.336 65.6189 226.158 64.6496C223.985 63.6803 222.342 62.2909 221.238 60.4816C220.132 58.6443 219.385 56.4616 218.997 53.9229C218.792 52.6589 218.69 51.3069 218.69 49.8696C218.69 48.4363 218.792 46.9296 218.997 45.3523L221.586 20.7603C222.281 14.1163 224.152 9.0656 227.202 5.6176C230.25 2.1616 234.874 0.436262 241.077 0.436262C244.242 0.436262 246.909 0.901597 249.068 1.83226C251.23 2.7616 252.892 4.12693 254.05 5.92293C255.209 7.7216 255.965 9.83493 256.324 12.2683C256.505 13.5349 256.597 14.9029 256.597 16.3789C256.597 17.7496 256.52 19.2096 256.368 20.7603L253.738 45.3909C253.404 48.6256 252.801 51.4736 251.924 53.9443C251.049 56.4163 249.852 58.5803 248.334 60.4429C246.817 62.3029 244.874 63.7123 242.505 64.6709C240.14 65.6269 237.373 66.1069 234.209 66.1069Z" fill="#231F20"/>
<path d="M132.665 0.43638H126.861H121.735L95.1415 71.2084H105.869L125.564 13.843L130.952 71.2084H141.731L132.665 0.43638Z" fill="#231F20"/>
<path d="M108.971 77.1669H126.302L122.474 38.5829L108.971 77.1669Z" fill="#BF1E2D"/>
</svg>
