<svg width="257" height="104" viewBox="0 0 257 104" fill="none" xmlns="http://www.w3.org/2000/svg">
<path d="M8.37866 19.676L10.7227 0.246677H14.7693L15.96 12.868L19.8893 0.246677H23.8307L22.116 19.676H19.2827L20.3907 6.50401L16.46 19.676H14.116L12.88 6.44534L11.2467 19.676H8.37866Z" fill="white"/>
<path d="M29.405 12.9142H31.7623L31.3996 5.13292L29.405 12.9142ZM23.9463 19.6756L29.7903 0.24625H33.989L35.749 19.6756H32.169L31.889 15.3396H28.7743L27.5983 19.6756H23.9463Z" fill="white"/>
<path d="M37.6626 19.676L39.6906 0.246677H42.3839L45.6959 10.5L46.7693 0.246677H49.9773L47.9479 19.676H45.3813L42.0933 8.78934L40.9506 19.676H37.6626Z" fill="white"/>
<path d="M56.2161 19.9339C55.1348 19.9339 54.2414 19.7859 53.5334 19.4885C52.8268 19.1912 52.3028 18.7619 51.9654 18.1992C51.6281 17.6365 51.4081 16.9459 51.3054 16.1259C51.2588 15.7579 51.2374 15.3672 51.2374 14.9539C51.2374 14.4459 51.2721 13.9059 51.3428 13.3365L52.7068 0.245853H56.4841L55.0748 13.8165C55.0428 14.1285 55.0201 14.4032 55.0041 14.6365C54.9961 14.7539 54.9961 14.8752 55.0041 15.0005V15.3872C55.0201 15.6525 55.0588 15.8792 55.1214 16.0672C55.1828 16.2539 55.2668 16.4285 55.3761 16.5885C55.4854 16.7485 55.6361 16.8672 55.8321 16.9459C56.0254 17.0232 56.2548 17.0632 56.5201 17.0632C56.8308 17.0632 57.1054 17.0005 57.3428 16.8752C57.5788 16.7499 57.7694 16.5939 57.9121 16.4059C58.0574 16.2192 58.1801 15.9725 58.2801 15.6685C58.3814 15.3632 58.4561 15.0739 58.5014 14.8005C58.5481 14.5272 58.5921 14.1992 58.6308 13.8165L60.0414 0.245853H63.8321L62.4561 13.3365C62.3628 14.2032 62.2308 14.9672 62.0588 15.6272C61.8881 16.2872 61.6468 16.8965 61.3361 17.4552C61.0241 18.0139 60.6414 18.4685 60.1881 18.8205C59.7334 19.1725 59.1748 19.4459 58.5148 19.6405C57.8534 19.8365 57.0868 19.9339 56.2161 19.9339Z" fill="white"/>
<path d="M64.5325 19.676L66.5605 0.246677H74.7018L74.4338 2.90668H70.1525L69.5925 8.21468H73.1258L72.8471 10.9333H69.3138L68.3925 19.676H64.5325Z" fill="white"/>
<path d="M78.7251 12.9142H81.0811L80.7185 5.13292L78.7251 12.9142ZM73.2665 19.6756L79.1091 0.24625H83.3091L85.0691 19.6756H81.4878L81.2091 15.3396H78.0945L76.9185 19.6756H73.2665Z" fill="white"/>
<path d="M92.2995 19.9339C91.4515 19.9339 90.7141 19.8325 90.0848 19.6285C89.4541 19.4259 88.9488 19.1352 88.5675 18.7565C88.1861 18.3779 87.8861 17.9179 87.6701 17.3792C87.4515 16.8405 87.3275 16.2392 87.2955 15.5739C87.2875 15.3712 87.2848 15.1605 87.2848 14.9419C87.2848 14.4579 87.3088 13.9459 87.3555 13.4059L88.0661 6.56319C88.1755 5.50852 88.3608 4.59252 88.6261 3.81519C88.8888 3.03785 89.2661 2.35519 89.7515 1.76985C90.2368 1.18319 90.8675 0.741854 91.6408 0.445854C92.4141 0.148521 93.3288 0.000521259 94.3861 0.000521259C95.3888 0.000521259 96.2315 0.131187 96.9128 0.392521C97.5928 0.655187 98.1101 1.03919 98.4688 1.54719C98.8275 2.05519 99.0581 2.63652 99.1675 3.29385C99.2301 3.65252 99.2581 4.05119 99.2501 4.48852C99.2501 4.84052 99.2301 5.21519 99.1915 5.61385L99.0048 7.30052H95.2621L95.4488 5.50852C95.4715 5.26585 95.4875 5.10719 95.4941 5.03385C95.5021 4.95919 95.5115 4.81652 95.5248 4.60585C95.5355 4.39519 95.5381 4.24985 95.5301 4.17252C95.5221 4.09385 95.5088 3.97119 95.4888 3.80319C95.4701 3.63519 95.4368 3.51785 95.3888 3.45119C95.3421 3.38452 95.2848 3.29919 95.2155 3.19385C95.1448 3.08852 95.0581 3.01385 94.9581 2.97119C94.8581 2.92852 94.7355 2.88852 94.5915 2.85385C94.4461 2.81919 94.2848 2.80052 94.1075 2.80052C93.8421 2.80052 93.6088 2.83385 93.4075 2.90052C93.2048 2.96719 93.0355 3.07119 92.8941 3.21119C92.7541 3.35119 92.6368 3.49785 92.5448 3.65119C92.4515 3.80319 92.3741 4.00452 92.3115 4.25385C92.2488 4.50452 92.2008 4.73119 92.1648 4.93385C92.1301 5.13652 92.0981 5.39119 92.0661 5.69519L91.1795 14.2859C91.1408 14.6285 91.1208 14.9419 91.1208 15.2232C91.1208 15.7392 91.1875 16.1445 91.3195 16.4419C91.5221 16.8952 91.9528 17.1219 92.6141 17.1219C92.8715 17.1219 93.0968 17.0899 93.2901 17.0272C93.4861 16.9645 93.6488 16.8592 93.7795 16.7112C93.9128 16.5632 94.0195 16.4179 94.1021 16.2779C94.1835 16.1365 94.2528 15.9379 94.3115 15.6805C94.3701 15.4219 94.4128 15.2059 94.4381 15.0299C94.4675 14.8539 94.4955 14.6059 94.5275 14.2859L94.7248 12.4219H98.4688L98.3061 14.0512C98.2128 14.9499 98.0435 15.7392 97.7981 16.4179C97.5528 17.0979 97.2035 17.7112 96.7488 18.2579C96.2928 18.8045 95.6941 19.2205 94.9461 19.5059C94.2008 19.7912 93.3181 19.9339 92.2995 19.9339Z" fill="white"/>
<path d="M101.932 19.676L103.671 3.10534H100.544L100.848 0.246677H110.876L110.584 3.10534H107.53L105.794 19.676H101.932Z" fill="white"/>
<path d="M115.833 19.9339C114.752 19.9339 113.859 19.7859 113.151 19.4885C112.444 19.1912 111.92 18.7619 111.583 18.1992C111.245 17.6365 111.025 16.9459 110.923 16.1259C110.876 15.7579 110.855 15.3672 110.855 14.9539C110.855 14.4459 110.889 13.9059 110.96 13.3365L112.324 0.245853H116.101L114.692 13.8165C114.66 14.1285 114.637 14.4032 114.621 14.6365C114.613 14.7539 114.613 14.8752 114.621 15.0005V15.3872C114.637 15.6525 114.676 15.8792 114.739 16.0672C114.8 16.2539 114.884 16.4285 114.993 16.5885C115.103 16.7485 115.253 16.8672 115.449 16.9459C115.643 17.0232 115.872 17.0632 116.137 17.0632C116.448 17.0632 116.723 17.0005 116.96 16.8752C117.196 16.7499 117.387 16.5939 117.529 16.4059C117.675 16.2192 117.797 15.9725 117.897 15.6685C117.999 15.3632 118.073 15.0739 118.119 14.8005C118.165 14.5272 118.209 14.1992 118.248 13.8165L119.659 0.245853H123.449L122.073 13.3365C121.98 14.2032 121.848 14.9672 121.676 15.6272C121.505 16.2872 121.264 16.8965 120.953 17.4552C120.641 18.0139 120.259 18.4685 119.805 18.8205C119.351 19.1725 118.792 19.4459 118.132 19.6405C117.471 19.8365 116.704 19.9339 115.833 19.9339Z" fill="white"/>
<path d="M129.176 8.51971H130.132C131.094 8.51971 131.804 8.29704 132.254 7.8517C132.704 7.40637 132.985 6.67971 133.093 5.67171C133.117 5.43037 133.129 5.20371 133.129 4.99171C133.137 4.35971 133.024 3.8797 132.79 3.55037C132.48 3.11304 131.866 2.89037 130.948 2.88237H129.769L129.176 8.51971ZM124.149 19.6757L126.178 0.246372H130.994C131.812 0.246372 132.526 0.295705 133.141 0.393038C133.754 0.490371 134.314 0.659704 134.818 0.902371C135.324 1.14504 135.729 1.45704 136.033 1.8397C136.344 2.23037 136.561 2.72237 136.686 3.31704C136.762 3.67571 136.798 4.07037 136.79 4.4997C136.79 4.78904 136.774 5.09037 136.744 5.40237C136.62 6.62104 136.32 7.62504 135.845 8.41437C135.37 9.2037 134.68 9.79304 133.769 10.1837L135.637 19.6757H131.8L130.329 10.8864H128.93L128.009 19.6757H124.149Z" fill="white"/>
<path d="M142.225 12.9142H144.582L144.22 5.13292L142.225 12.9142ZM136.766 19.6756L142.61 0.24625H146.809L148.569 19.6756H144.989L144.709 15.3396H141.594L140.418 19.6756H136.766Z" fill="white"/>
<path d="M160.197 16.9689H161.037C161.355 16.9689 161.637 16.9436 161.882 16.8929C162.126 16.8422 162.335 16.7796 162.506 16.7049C162.677 16.6316 162.827 16.5116 162.954 16.3476C163.083 16.1836 163.186 16.0289 163.265 15.8849C163.342 15.7409 163.41 15.5289 163.467 15.2516C163.527 14.9742 163.571 14.7302 163.603 14.5196C163.634 14.3089 163.669 14.0076 163.707 13.6169L164.511 5.95292C164.558 5.52358 164.582 5.14492 164.582 4.81692C164.574 4.59825 164.562 4.40225 164.547 4.23025C164.502 3.79292 164.319 3.47692 164.003 3.28092C163.69 3.08625 163.178 2.98892 162.471 2.98892H161.655L160.197 16.9689ZM156.046 19.6756L158.074 0.24625H162.739C163.951 0.24625 164.951 0.360916 165.735 0.591583C166.522 0.822249 167.13 1.19292 167.561 1.70492C167.994 2.21692 168.271 2.83958 168.395 3.57425C168.457 3.95692 168.489 4.38625 168.489 4.86358C168.489 5.30892 168.462 5.80092 168.407 6.33958L167.673 13.3476C167.517 14.8476 167.206 16.0476 166.739 16.9449C166.273 17.8436 165.559 18.5236 164.601 18.9849C163.639 19.4449 162.378 19.6756 160.815 19.6756H156.046Z" fill="white"/>
<path d="M175.241 17.1213C175.614 17.1213 175.931 17.0533 176.191 16.916C176.451 16.78 176.655 16.576 176.798 16.3067C176.941 16.0373 177.046 15.7613 177.113 15.4813C177.178 15.2 177.235 14.856 177.282 14.4493L178.226 5.41467C178.25 5.09334 178.262 4.79334 178.262 4.512C178.254 4.37067 178.25 4.23467 178.25 4.10133C178.234 3.71067 178.102 3.39733 177.853 3.15867C177.605 2.92 177.235 2.80134 176.746 2.80134C176.373 2.80134 176.057 2.86533 175.801 2.99467C175.545 3.12267 175.346 3.32 175.207 3.58667C175.066 3.852 174.962 4.12133 174.897 4.39467C174.83 4.668 174.774 5.008 174.727 5.41467L173.782 14.4493C173.751 14.8013 173.737 15.1293 173.737 15.4333C173.737 15.5587 173.741 15.676 173.749 15.7853C173.765 16.176 173.894 16.496 174.139 16.7467C174.383 16.996 174.751 17.1213 175.241 17.1213ZM174.949 19.9333C173.907 19.9333 173.033 19.7907 172.325 19.5067C171.618 19.2213 171.074 18.7947 170.693 18.2293C170.311 17.6627 170.063 16.996 169.946 16.2307C169.883 15.832 169.853 15.3987 169.853 14.9293C169.853 14.492 169.879 14.024 169.935 13.524L170.693 6.34C170.91 4.23867 171.513 2.656 172.501 1.59334C173.489 0.532002 174.999 2.45968e-06 177.038 2.45968e-06C178.079 2.45968e-06 178.954 0.141335 179.661 0.422668C180.369 0.704002 180.917 1.12134 181.306 1.676C181.678 2.23867 181.929 2.90267 182.051 3.668C182.113 4.06667 182.15 4.5 182.157 4.96933C182.157 5.39867 182.129 5.856 182.075 6.34L181.317 13.524C181.101 15.6173 180.491 17.2093 179.491 18.2987C178.493 19.3893 176.979 19.9333 174.949 19.9333Z" fill="white"/>
<path d="M188.327 8.09786H189.295C190.281 8.09786 190.979 7.88053 191.387 7.4472C191.796 7.01386 192.051 6.30453 192.151 5.32053C192.167 5.15653 192.175 5.00053 192.175 4.8512C192.175 4.18053 191.996 3.7032 191.637 3.42186C191.201 3.07786 190.472 2.90586 189.445 2.90586H188.873L188.327 8.09786ZM187.405 16.9459H188.512C189.516 16.9459 190.235 16.7085 190.671 16.2365C191.105 15.7645 191.377 14.9965 191.485 13.9339C191.517 13.6605 191.532 13.4032 191.532 13.1605C191.532 12.4179 191.393 11.8592 191.113 11.4845C190.748 10.9925 190.056 10.7459 189.037 10.7459H188.045L187.405 16.9459ZM183.253 19.6765L185.283 0.245863H190.157C190.872 0.245863 191.508 0.289864 192.064 0.375197C192.62 0.46053 193.141 0.617863 193.632 0.844529C194.123 1.06986 194.517 1.36986 194.816 1.74053C195.116 2.1112 195.331 2.59386 195.464 3.1872C195.54 3.5392 195.579 3.92186 195.579 4.33653C195.579 4.63253 195.561 4.94186 195.521 5.26186C195.248 7.60586 194.165 8.92586 192.267 9.2232C194.251 9.5592 195.241 10.8592 195.241 13.1259C195.241 13.3992 195.225 13.6832 195.195 13.9805C195.009 15.8792 194.384 17.3032 193.324 18.2525C192.261 19.2019 190.817 19.6765 188.991 19.6765H183.253Z" fill="white"/>
<path d="M196.874 19.676L198.903 0.246677H202.764L201.014 17.016H205.551L205.271 19.676H196.874Z" fill="white"/>
<path d="M207.079 19.676L209.107 0.246677H217.47L217.189 2.94134H212.689L212.139 8.16801H215.65L215.371 10.8867H211.861L211.218 17.016H215.778L215.498 19.676H207.079Z" fill="white"/>
<path d="M0 91.4077L6.71733 27.0957H15.1707L8.45333 91.4077H0Z" fill="white"/>
<path d="M18.7212 91.4077L26.6745 27.0957H35.1279L41.0719 79.6144L58.1332 27.0957H66.5479L61.0665 91.4077H54.0812L58.2879 44.2024L42.3452 91.4077H37.4439L31.4599 44.2411L25.7865 91.4077H18.7212Z" fill="white"/>
<path d="M83.4166 55.1799H87.8179C91.7286 55.1799 94.5006 54.4545 96.1339 53.0052C97.7699 51.5585 98.7926 48.8292 99.2046 44.8212C99.4126 43.2972 99.5139 41.9505 99.5139 40.7879V40.0905C99.4619 38.7732 99.3139 37.6772 99.0686 36.8119C98.8246 35.9439 98.3179 35.2532 97.5459 34.7345C96.7753 34.2185 95.8219 33.8585 94.6886 33.6519C93.5539 33.4452 92.0766 33.3399 90.2486 33.3399H85.6939L83.4166 55.1799ZM70.9486 91.4079L77.6659 27.0959H93.5299C99.0606 27.0959 102.91 28.5959 105.071 31.5959C106.771 33.9759 107.631 37.1945 107.658 41.2532C107.658 42.3665 107.594 43.5412 107.465 44.7839C106.897 49.9812 105.129 54.0532 102.158 57.0012C99.1859 59.9465 95.1259 61.4225 89.9779 61.4225H82.7619L79.5953 91.4079H70.9486Z" fill="white"/>
<path d="M161.829 92.1069C159.181 92.1069 156.888 91.7483 154.96 91.0389C153.029 90.3269 151.504 89.3389 150.384 88.0709C149.265 86.8029 148.389 85.2856 147.76 83.5123C147.129 81.7416 146.789 79.7976 146.737 77.6763V76.3936C146.737 74.6629 146.813 72.8256 146.968 70.8883L149.401 47.8469C149.761 44.4349 150.333 41.4843 151.119 39.0029C151.904 36.5229 153.023 34.3016 154.476 32.3523C155.929 30.4003 157.843 28.9256 160.208 27.9296C162.577 26.9336 165.407 26.4363 168.7 26.4363C171.635 26.4363 174.105 26.8523 176.113 27.6789C178.12 28.5083 179.651 29.7376 180.707 31.3803C181.761 33.0256 182.456 34.9563 182.792 37.1803C182.971 38.3176 183.061 39.5576 183.061 40.9029C183.061 42.1469 182.983 43.4896 182.829 44.9403L182.289 49.9403H174.105L174.569 45.5189C174.671 44.5629 174.748 43.7803 174.8 43.1736C174.852 42.5656 174.897 41.8629 174.935 41.0589C174.973 40.2563 174.968 39.6056 174.915 39.0989C174.863 38.5963 174.78 38.0336 174.665 37.4123C174.551 36.7923 174.381 36.3016 174.163 35.9403C173.944 35.5763 173.661 35.2029 173.313 34.8136C172.968 34.4283 172.548 34.1296 172.059 33.9229C171.569 33.7163 170.992 33.5469 170.321 33.4176C169.652 33.2883 168.908 33.2229 168.084 33.2229C166.589 33.2229 165.299 33.4456 164.204 33.8829C163.111 34.3243 162.229 34.8923 161.559 35.5909C160.891 36.2856 160.324 37.2509 159.86 38.4789C159.397 39.7069 159.056 40.9163 158.837 42.1043C158.62 43.2976 158.408 44.8109 158.2 46.6429L155.537 72.2829C155.357 73.8856 155.269 75.3229 155.269 76.5896C155.269 79.1776 155.629 81.1136 156.349 82.4096C157.379 84.3203 159.463 85.2776 162.601 85.2776C163.812 85.2776 164.865 85.1469 165.767 84.8883C166.668 84.6309 167.431 84.2043 168.064 83.6096C168.692 83.0149 169.215 82.3963 169.628 81.7483C170.037 81.1016 170.387 80.2229 170.671 79.1123C170.952 77.9989 171.172 76.9696 171.324 76.0269C171.48 75.0829 171.635 73.8603 171.788 72.3616L172.251 67.6683H180.436L179.935 72.3616C179.625 75.4376 179.097 78.1296 178.351 80.4296C177.604 82.7309 176.543 84.7869 175.167 86.5936C173.791 88.4069 171.989 89.7763 169.761 90.7043C167.536 91.6389 164.892 92.1069 161.829 92.1069Z" fill="white"/>
<path d="M193.176 91.4077L199.197 33.5344H187.424L188.08 27.0957H219.925L219.269 33.5344H207.845L201.784 91.4077H193.176Z" fill="white"/>
<path d="M234.941 85.2776C236.717 85.2776 238.216 85.0083 239.436 84.4629C240.66 83.9203 241.632 83.0789 242.351 81.9403C243.075 80.8056 243.621 79.5629 243.993 78.2189C244.367 76.8736 244.653 75.2203 244.857 73.2509L247.793 44.9776C247.952 43.7363 248.027 42.5709 248.027 41.4843C248.027 40.9936 248.015 40.5309 247.988 40.0896C247.884 38.6403 247.597 37.4069 247.119 36.3856C246.644 35.3616 245.845 34.5816 244.725 34.0376C243.605 33.4976 242.16 33.2229 240.384 33.2229C238.608 33.2229 237.109 33.4816 235.884 34.0003C234.663 34.5189 233.692 35.3243 232.972 36.4229C232.251 37.5243 231.704 38.7309 231.332 40.0509C230.96 41.3723 230.667 43.0109 230.461 44.9776L227.529 73.2509C227.403 74.5976 227.335 75.8376 227.335 76.9749C227.335 77.9603 227.387 78.8416 227.493 79.6149C227.699 81.3723 228.403 82.7576 229.613 83.7629C230.824 84.7749 232.6 85.2776 234.941 85.2776ZM234.208 92.1069C231.017 92.1069 228.336 91.6189 226.157 90.6496C223.985 89.6803 222.343 88.2909 221.239 86.4816C220.132 84.6443 219.384 82.4616 218.996 79.9229C218.791 78.6589 218.691 77.3069 218.691 75.8696C218.691 74.4363 218.791 72.9296 218.996 71.3523L221.585 46.7603C222.28 40.1163 224.152 35.0656 227.201 31.6176C230.251 28.1616 234.873 26.4363 241.077 26.4363C244.241 26.4363 246.908 26.9016 249.067 27.8323C251.231 28.7616 252.892 30.1269 254.051 31.9229C255.208 33.7216 255.965 35.8349 256.324 38.2683C256.505 39.5349 256.596 40.9029 256.596 42.3789C256.596 43.7496 256.52 45.2096 256.367 46.7603L253.739 71.3909C253.403 74.6256 252.801 77.4736 251.923 79.9443C251.048 82.4163 249.851 84.5803 248.335 86.4429C246.816 88.3029 244.873 89.7123 242.504 90.6709C240.139 91.6269 237.373 92.1069 234.208 92.1069Z" fill="white"/>
<path d="M132.665 26.4364H126.861H121.736L95.1412 97.2084H105.868L125.564 39.8431L130.952 97.2084H141.731L132.665 26.4364Z" fill="white"/>
<path d="M108.971 103.167H126.302L122.475 64.5829L108.971 103.167Z" fill="white"/>
</svg>
